<svg width="20" height="21" fill="none" xmlns="http://www.w3.org/2000/svg"><path d="M6.664 20H2.15C-.3 20 .013 19.08.013 16.613V6.937c0-1.563.81-1.447 2.136-2.257L8.992.647c1.413-.863 1.082-.863 2.494 0l6.345 4.033c1.326.81 2.136.694 2.136 2.257v9.676c0 2.468.453 3.387-1.995 3.387h-4.656m-6.652 0v-4.47c0-1.851 1.49-3.351 3.326-3.351 1.837 0 3.326 1.5 3.326 3.351V20m-6.652 0h6.652-6.652Z" fill="#222"/><path fill-rule="evenodd" clip-rule="evenodd" d="M6.462 12.632a10.115 10.115 0 0 1 7.103 0c.57.214.948.76.948 1.369v6.333h-1v-6.333a.462.462 0 0 0-.3-.432 9.115 9.115 0 0 0-6.4 0c-.18.067-.3.24-.3.432v6.333h-1v-6.333c0-.61.378-1.155.949-1.369Z" fill="#FDFDFD"/></svg>