<svg width="20" height="20" fill="none" xmlns="http://www.w3.org/2000/svg"><path d="M19.621 7.453a.235.235 0 0 1 .379.184v7.988c0 1.035-.84 1.875-1.875 1.875H1.875A1.875 1.875 0 0 1 0 15.625V7.641c0-.196.223-.305.379-.184.875.68 2.035 1.543 6.02 4.438.824.601 2.214 1.867 3.601 1.859 1.395.012 2.813-1.281 3.605-1.86C17.59 9 18.746 8.134 19.621 7.455ZM10 12.5c.906.016 2.21-1.14 2.867-1.617 5.184-3.762 5.578-4.09 6.774-5.028A.935.935 0 0 0 20 5.117v-.742C20 3.34 19.16 2.5 18.125 2.5H1.875C.84 2.5 0 3.34 0 4.375v.742c0 .29.133.559.36.738 1.195.934 1.59 1.266 6.773 5.028.656.476 1.96 1.633 2.867 1.617Z" fill="#222"/></svg>