<?xml version="1.0" encoding="utf-8"?><svg viewBox="0 0 23 21" xmlns="http://www.w3.org/2000/svg" xmlns:xlink="http://www.w3.org/1999/xlink"><style>:root>svg{display:none}:root>svg:target{display:block}</style><svg viewBox="0 0 14 10" id="angle-down" xmlns="http://www.w3.org/2000/svg"><path d="M6.26 9.193.31 3.268a1.038 1.038 0 0 1 0-1.476l.989-.985a1.05 1.05 0 0 1 1.483 0L7 5.007l4.219-4.2a1.05 1.05 0 0 1 1.483 0l.99.985c.41.41.41 1.071 0 1.476L7.74 9.193c-.403.41-1.068.41-1.48 0Z"/></svg><svg viewBox="0 0 23 16" id="arrow-left" xmlns="http://www.w3.org/2000/svg"><path fill-rule="evenodd" clip-rule="evenodd" d="M6.802.828.299 7.309A1.016 1.016 0 0 0 .3 8.75l6.503 6.482a1.024 1.024 0 0 0 1.445 0 1.016 1.016 0 0 0 0-1.44L3.489 9.048h18.49A1.02 1.02 0 0 0 23 8.029a1.02 1.02 0 0 0-1.022-1.018H3.488l4.759-4.743a1.016 1.016 0 0 0 0-1.44 1.024 1.024 0 0 0-1.445 0z"/></svg><svg viewBox="0 0 23 16" id="arrow-right" xmlns="http://www.w3.org/2000/svg"><path fill-rule="evenodd" clip-rule="evenodd" d="m16.198.828 6.503 6.481a1.016 1.016 0 0 1 0 1.44l-6.503 6.482a1.024 1.024 0 0 1-1.445 0 1.016 1.016 0 0 1 0-1.44l4.759-4.743H1.022A1.02 1.02 0 0 1 0 8.029a1.02 1.02 0 0 1 1.022-1.018h18.49l-4.759-4.743a1.016 1.016 0 0 1 0-1.44 1.024 1.024 0 0 1 1.445 0Z"/></svg><svg viewBox="0 0 20 20" id="file" xmlns="http://www.w3.org/2000/svg"><path d="m12.89 0 4.61 5.192V19.09a.896.896 0 0 1-.882.909H3.382a.896.896 0 0 1-.882-.91V.91c0-.503.395-.91.882-.91h9.508Zm-.584 1.364H3.824v17.272h12.352V6.342h-2.829c-.705.028-1.25-.086-1.64-.394-.454-.358-.62-.968-.598-1.781v-2.8h1.201l-.004-.003Zm-1.382 13.181c.365 0 .662.306.662.682a.669.669 0 0 1-.662.682H5.81a.669.669 0 0 1-.662-.682c0-.376.296-.682.662-.682h5.115Zm3.055-3.636c.365 0 .662.305.662.682a.669.669 0 0 1-.662.682H5.81a.669.669 0 0 1-.662-.682c0-.377.296-.682.662-.682h8.17Zm-3.055-3.636c.365 0 .662.305.662.682a.67.67 0 0 1-.662.681H5.81a.67.67 0 0 1-.662-.681c0-.377.296-.682.662-.682h5.115Zm1.46-5.823.048.059v2.676c-.012.439.047.656.08.68.095.076.358.131.81.114h2.193l.375.424.286.319-3.792-4.272Z"/></svg><svg viewBox="0 0 20 21" id="home" xmlns="http://www.w3.org/2000/svg"><path d="M6.664 20H2.15C-.3 20 .013 19.08.013 16.613V6.937c0-1.563.81-1.447 2.136-2.257L8.992.647c1.413-.863 1.082-.863 2.494 0l6.345 4.033c1.326.81 2.136.694 2.136 2.257v9.676c0 2.468.453 3.387-1.995 3.387h-4.656m-6.652 0v-4.47c0-1.851 1.49-3.351 3.326-3.351 1.837 0 3.326 1.5 3.326 3.351V20m-6.652 0h6.652-6.652Z"/><path fill-rule="evenodd" clip-rule="evenodd" d="M6.462 12.632a10.115 10.115 0 0 1 7.103 0c.57.214.948.76.948 1.369v6.333h-1v-6.333a.462.462 0 0 0-.3-.432 9.115 9.115 0 0 0-6.4 0c-.18.067-.3.24-.3.432v6.333h-1v-6.333c0-.61.378-1.155.949-1.369Z"/></svg><svg viewBox="0 0 20 20" id="mail" xmlns="http://www.w3.org/2000/svg"><path d="M19.621 7.453a.235.235 0 0 1 .379.184v7.988c0 1.035-.84 1.875-1.875 1.875H1.875A1.875 1.875 0 0 1 0 15.625V7.641c0-.196.223-.305.379-.184.875.68 2.035 1.543 6.02 4.438.824.601 2.214 1.867 3.601 1.859 1.395.012 2.813-1.281 3.605-1.86C17.59 9 18.746 8.134 19.621 7.455ZM10 12.5c.906.016 2.21-1.14 2.867-1.617 5.184-3.762 5.578-4.09 6.774-5.028A.935.935 0 0 0 20 5.117v-.742C20 3.34 19.16 2.5 18.125 2.5H1.875C.84 2.5 0 3.34 0 4.375v.742c0 .29.133.559.36.738 1.195.934 1.59 1.266 6.773 5.028.656.476 1.96 1.633 2.867 1.617Z"/></svg><svg viewBox="0 0 20 20" id="phone" xmlns="http://www.w3.org/2000/svg"><path d="M19.274.961 15.21.024a.944.944 0 0 0-1.074.543l-1.875 4.375a.935.935 0 0 0 .27 1.094l2.367 1.937a14.477 14.477 0 0 1-6.922 6.922l-1.938-2.367a.937.937 0 0 0-1.093-.27L.57 14.133a.949.949 0 0 0-.547 1.078l.937 4.063a.937.937 0 0 0 .914.726C11.88 20 20 11.895 20 1.875c0-.437-.3-.816-.726-.914Z"/></svg><svg viewBox="0 0 17 17" id="tail-left" xmlns="http://www.w3.org/2000/svg"><path fill-rule="evenodd" clip-rule="evenodd" d="M17 8.014a1 1 0 0 0-1.015-.985l-15 .223a1 1 0 1 0 .03 2l15-.223A1 1 0 0 0 17 8.014Z"/><path fill-rule="evenodd" clip-rule="evenodd" d="M8.707.322a1 1 0 0 0-1.414 0l-7 7a1 1 0 0 0 0 1.414l7 7a1 1 0 0 0 1.414-1.414L2.414 8.03l6.293-6.293a1 1 0 0 0 0-1.414Z"/></svg><svg viewBox="0 0 17 17" id="tail-right" xmlns="http://www.w3.org/2000/svg"><path fill-rule="evenodd" clip-rule="evenodd" d="M0 8.014a1 1 0 0 1 1.015-.985l15 .223a1 1 0 0 1-.03 2l-15-.223A1 1 0 0 1 0 8.014Z"/><path fill-rule="evenodd" clip-rule="evenodd" d="M8.293.322a1 1 0 0 1 1.414 0l7 7a1 1 0 0 1 0 1.414l-7 7a1 1 0 0 1-1.414-1.414l6.293-6.293-6.293-6.293a1 1 0 0 1 0-1.414Z"/></svg></svg>