<?xml version="1.0" encoding="UTF-8" standalone="no"?>
<!-- Generator: Adobe Illustrator 27.5.0, SVG Export Plug-In . SVG Version: 6.00 Build 0)  -->

<svg
   version="1.1"
   id="BASE"
   x="0px"
   y="0px"
   viewBox="0 0 500 167.5"
   xml:space="preserve"
   sodipodi:docname="404.svg"
   width="500"
   height="167.5"
   inkscape:version="1.3.2 (091e20e, 2023-11-25, custom)"
   xmlns:inkscape="http://www.inkscape.org/namespaces/inkscape"
   xmlns:sodipodi="http://sodipodi.sourceforge.net/DTD/sodipodi-0.dtd"
   xmlns="http://www.w3.org/2000/svg"
   xmlns:svg="http://www.w3.org/2000/svg"><defs
   id="defs15" /><sodipodi:namedview
   id="namedview15"
   pagecolor="#505050"
   bordercolor="#eeeeee"
   borderopacity="1"
   inkscape:showpageshadow="0"
   inkscape:pageopacity="0"
   inkscape:pagecheckerboard="0"
   inkscape:deskcolor="#505050"
   inkscape:zoom="0.34463277"
   inkscape:cx="1073.6066"
   inkscape:cy="361.2541"
   inkscape:window-width="1920"
   inkscape:window-height="1009"
   inkscape:window-x="1912"
   inkscape:window-y="-8"
   inkscape:window-maximized="1"
   inkscape:current-layer="BASE" />
<g
   id="g15"
   transform="matrix(0.23289719,0,0,0.23315055,-38.463903,-128.01902)">
	<polygon
   style="fill:#54c3e9"
   points="326.292,873.738 182.488,873.738 165.154,899.986 308.957,899.986 "
   id="polygon1" />
	<polygon
   style="fill:#54c3e9"
   points="483.188,611.273 339.384,611.273 322.049,637.523 465.853,637.523 "
   id="polygon2" />
	<polygon
   style="fill:#54c3e9"
   points="1751.245,873.738 1607.441,873.738 1590.105,899.986 1733.909,899.986 "
   id="polygon3" />
	<polygon
   style="fill:#54c3e9"
   points="1908.14,611.273 1764.337,611.273 1747.002,637.523 1890.804,637.523 "
   id="polygon4" />
	<rect
   x="1288.656"
   y="977.95697"
   style="fill:#54c3e9"
   width="32.151001"
   height="27.854"
   id="rect4" />
	<path
   style="fill:#54c3e9"
   d="m 802.739,1025.307 -89.441,-0.239 0.052,-19.256 h 29.72 v -27.854 h -29.646 l 0.773,-287.935 h 63.264 l 17.336,-26.249 h -80.529 l 0.07,-26.249 h 53.488 l 17.335,-26.249 h -70.753 l 0.14,-52.241 -96.502,-0.259 -0.048,0.073 -26.879,-0.073 -0.058,0.089 -27.784,-0.069 -34.672,52.491 h 27.836 l -17.327,26.239 -0.003,0.006 h -27.842 l -17.336,26.246 h 27.844 l -17.331,26.244 h -27.849 l -156.02,236.241 h -77.793 l -17.335,26.25 h 77.792 l -47.203,71.475 -0.023,7.272 H 203.64 l -17.335,26.248 h 69.628 l -0.197,62.975 306.036,0.843 -0.195,67.428 H 449.732 l -17.335,26.249 h 129.105 l -0.151,52.238 93.936,0.235 v 0.025 h 117.319 l 17.335,-26.249 h -77.223 l 0.07,-26.249 h 45.689 l 17.334,-26.249 H 712.86 l 0.179,-67.04 34.619,0.093 10e-4,-0.072 27.895,0.075 v -0.073 l 26.926,0.073 0.031,-11.803 h 25.726 l 17.336,-26.249 h -42.991 l 0.07,-26.25 h 53.843 l 17.336,-26.248 h -71.107 z m -240.724,-0.646 -118.94,-0.319 48.684,-71.829 h 10e-4 l 17.791,-26.25 52.918,-78.077 z"
   id="path4" />
	<path
   style="fill:#54c3e9"
   d="m 2227.691,1025.307 -89.44,-0.239 0.051,-19.256 h 29.719 v -27.854 h -29.644 l 0.772,-287.935 h 63.263 l 17.336,-26.249 h -80.528 l 0.07,-26.249 h 53.489 l 17.334,-26.249 h -70.753 l 0.14,-52.241 -96.503,-0.259 -0.047,0.073 -26.879,-0.073 -0.059,0.089 -27.784,-0.069 -34.672,52.491 h 27.837 l -3.814,5.774 -13.515,20.465 v 0.006 h -27.842 l -17.336,26.246 h 27.844 l -17.332,26.244 h -27.85 L 1745.53,926.265 h -77.793 l -17.334,26.25 h 77.792 l -47.203,71.475 -0.023,7.272 h -52.375 l -17.334,26.248 h 69.627 l -0.196,62.975 306.035,0.843 -0.195,67.428 h -111.846 l -17.334,26.249 h 129.104 l -0.151,52.238 93.936,0.235 v 0.025 h 117.319 l 17.335,-26.249 h -77.223 l 0.07,-26.249 h 45.69 l 17.334,-26.249 h -62.953 l 0.181,-67.04 34.618,0.093 v -0.072 l 27.895,0.075 v -0.073 l 26.926,0.073 0.031,-11.803 h 25.726 l 17.335,-26.249 h -42.99 l 0.07,-26.25 h 53.843 l 17.336,-26.248 h -71.107 z m -240.725,-0.646 -118.939,-0.319 48.684,-71.829 17.791,-26.25 52.918,-78.077 z"
   id="path5" />
	<path
   style="fill:#54c3e9"
   d="m 1559.528,1057.507 17.334,-26.248 h -60.957 l 0.493,-183.745 h 56.372 l 17.335,-26.249 h -73.637 l 0.121,-44.9 c 0.089,-30.417 -5.887,-59.687 -16.792,-86.344 h 27.215 l 17.335,-26.249 h -57.318 c -5.22,-9.174 -11.059,-17.941 -17.458,-26.249 h 68.615 l 17.334,-26.249 h -109.635 c -8.907,-8.448 -18.501,-16.18 -28.695,-23.109 -36.051,-24.531 -79.892,-38.976 -126.665,-39.081 -4.641,-0.013 -9.255,0.117 -13.838,0.382 -4.196,-0.242 -8.419,-0.372 -12.666,-0.382 -5.97,-0.017 -11.896,0.2 -17.767,0.641 -5.342,-0.391 -10.728,-0.599 -16.156,-0.612 -31.159,-0.09 -61.118,6.18 -88.295,17.597 -25.485,10.706 -48.548,25.88 -68.251,44.561 h -64.501 l -17.334,26.249 h 58.144 c -2.759,3.58 -5.416,7.244 -7.962,10.991 -23.407,34.398 -37.631,75.89 -38.977,120.255 h -49.768 l -17.335,26.249 h 66.945 l -0.21,78.721 H 885.521 l -17.336,26.249 h 134.297 l -0.07,26.277 h -56.596 l -17.334,26.25 h 73.86 l -0.211,78.747 h -68.66 l -17.336,26.248 h 87.432 c 2.451,21.729 7.985,42.611 16.159,62.066 10.875,25.888 26.362,49.275 45.451,69.18 h -31.455 L 1016.387,1215 h 78.792 c 2.09,1.526 4.205,3.02 6.348,4.477 36.051,24.531 79.892,38.976 126.665,39.081 v 10e-4 c 5.973,0.018 11.899,-0.202 17.772,-0.643 5.339,0.391 10.725,0.599 16.152,0.611 v 10e-4 c 4.644,0.014 9.26,-0.117 13.845,-0.382 4.193,0.242 8.413,0.372 12.658,0.381 v 10e-4 c 31.16,0.09 61.119,-6.181 88.295,-17.597 40.79,-17.135 75.375,-45.715 99.904,-81.802 10.291,-15.123 18.806,-31.618 25.233,-49.125 h 52.205 l 17.335,-26.249 h -61.674 c 2.013,-8.58 3.537,-17.342 4.544,-26.25 h 45.067 z m -203.867,-25.279 c -0.055,17.654 -3.642,34.204 -10.081,49.337 -9.652,22.676 -25.857,42.104 -46.167,55.736 -12.184,8.164 -25.739,14.257 -40.333,17.822 -6.737,-1.641 -13.255,-3.818 -19.528,-6.487 -22.676,-9.651 -42.102,-25.856 -55.736,-46.167 -13.63,-20.344 -21.496,-44.505 -21.445,-70.95 l 0.212,-78.983 h 32.202 l 17.819,-26.246 h -49.95 l 0.404,-150.873 c 0.055,-17.654 3.641,-34.204 10.082,-49.337 5.665,-13.312 13.592,-25.502 23.279,-36.06 h 45.386 l 17.332,-26.244 h -28.885 c 9.193,-4.916 19.026,-8.724 29.387,-11.255 6.737,1.641 13.256,3.818 19.529,6.488 22.675,9.652 42.102,25.857 55.735,46.167 13.63,20.344 21.496,44.505 21.446,70.951 z"
   id="path6" />
	<path
   style="fill:#e72685"
   d="m 802.723,1031.259 0.016,-5.952 -89.441,-0.239 0.052,-19.256 h 29.72 v -27.854 h -29.646 l 0.773,-287.935 h 63.264 l 17.336,-26.249 h -80.529 l 0.07,-26.249 h 53.488 l 17.335,-26.249 h -70.753 l 0.14,-52.241 -96.502,-0.259 -0.048,0.073 -26.879,-0.073 -0.058,0.089 -34.612,52.411 h 26.926 l -17.335,26.249 h -26.926 l -0.003,0.006 -17.334,26.246 h 55.583 l -17.331,26.244 H 504.446 L 383.115,873.739 h 21.546 l -17.336,26.246 h -21.543 l -17.355,26.278 h -80.3 l -17.335,26.25 h 80.3 l -47.203,71.475 -0.02,7.272 h -54.886 l -17.335,26.248 h 72.15 l -0.17,62.981 305.981,0.822 -0.038,14.142 h 27.498 v 27.852 h -27.572 l -0.068,25.448 -0.07,26.249 -0.14,52.236 66.068,0.178 v 0.084 h 117.319 l 17.335,-26.249 h -77.223 l 0.07,-26.249 h 45.689 l 17.334,-26.249 H 712.86 l 0.179,-67.04 v -0.072 l 34.62,0.093 27.895,0.075 v -0.073 l 26.926,0.073 0.031,-11.803 h 25.726 l 17.336,-26.249 h -42.991 l 0.07,-26.25 h 53.843 l 17.336,-26.248 z m -184.948,-25.448 h -27.854 l -0.051,18.925 -27.855,-0.075 -118.94,-0.319 48.684,-71.829 h 10e-4 l 17.791,-26.25 52.918,-78.077 27.987,-41.294 -0.459,171.065 h 27.78 v 27.854 z"
   id="path7" />
	<path
   style="fill:#e72685"
   d="m 2227.675,1031.259 0.016,-5.952 -89.44,-0.239 0.051,-19.256 h 29.719 v -27.854 h -29.644 l 0.772,-287.935 h 63.263 l 17.336,-26.249 h -80.528 l 0.07,-26.249 h 53.489 l 17.334,-26.249 h -70.753 l 0.14,-52.241 -96.503,-0.259 -0.047,0.073 -26.879,-0.073 -0.059,0.089 -34.619,52.422 0.01,-0.01 h 26.926 l -3.821,5.784 -13.515,20.465 h -26.926 v 0.006 l -17.334,26.246 h 55.582 l -17.331,26.244 h -55.582 l -121.33,183.718 h 21.547 l -17.337,26.246 h -21.542 l -17.354,26.278 h -80.301 l -17.334,26.25 h 80.3 l -47.203,71.475 -0.02,7.272 h -54.885 l -17.336,26.248 h 72.152 l -0.171,62.981 305.981,0.822 -0.038,14.142 h 27.498 v 27.852 h -27.572 l -0.068,25.448 -0.071,26.249 -0.139,52.236 66.068,0.178 v 0.084 h 117.319 l 17.335,-26.249 h -77.223 l 0.07,-26.249 h 45.69 l 17.334,-26.249 h -62.953 l 0.181,-67.04 v -0.072 l 34.618,0.093 27.895,0.075 v -0.073 l 26.926,0.073 0.031,-11.803 h 25.726 l 17.335,-26.249 h -42.99 l 0.07,-26.25 h 53.843 l 17.336,-26.248 h -71.109 z m -184.947,-25.448 h -27.855 l -0.051,18.925 -27.855,-0.075 -118.939,-0.319 48.684,-71.829 17.791,-26.25 52.918,-78.077 27.987,-41.294 -0.459,171.065 h 27.78 v 27.854 z"
   id="path8" />
	<path
   style="fill:#e72685"
   d="m 1572.77,847.515 17.335,-26.249 h -73.637 l 0.121,-44.9 c 0.089,-30.417 -5.887,-59.687 -16.792,-86.344 h 27.215 l 17.335,-26.249 h -57.318 c -5.22,-9.174 -11.059,-17.941 -17.458,-26.249 h 68.615 l 17.334,-26.249 h -109.635 c -8.907,-8.448 -18.501,-16.18 -28.695,-23.109 -36.051,-24.531 -79.892,-38.976 -126.665,-39.081 -4.641,-0.013 -9.255,0.117 -13.838,0.382 -4.196,-0.242 -8.419,-0.372 -12.666,-0.382 -5.97,-0.017 -11.896,0.2 -17.767,0.641 -24.769,1.862 -48.558,7.725 -70.527,16.955 -25.499,10.712 -48.574,25.897 -68.283,44.591 h 36.232 c -8.554,8.114 -16.473,16.891 -23.682,26.249 h -36.232 c -2.751,3.571 -5.399,7.225 -7.939,10.961 -23.413,34.406 -37.637,75.908 -38.977,120.285 h -83.693 l -17.335,26.249 h 100.87 l -0.352,131.246 H 971.16 l -17.336,26.25 h 82.441 l -0.212,78.737 v 0.01 h -77.24 l -17.335,26.248 h 96.016 c 2.454,21.717 7.987,42.59 16.156,62.036 10.88,25.9 26.377,49.299 45.479,69.211 h 64.885 c 9.206,9.595 19.25,18.382 30.018,26.247 h -64.888 c 2.076,1.517 4.178,3 6.307,4.448 31.869,21.686 69.825,35.486 110.514,38.469 5.339,0.391 10.725,0.599 16.152,0.611 v 10e-4 c 4.644,0.014 9.26,-0.117 13.845,-0.382 4.193,0.242 8.413,0.372 12.658,0.381 v 10e-4 c 31.16,0.09 61.119,-6.181 88.295,-17.597 40.79,-17.135 75.375,-45.715 99.904,-81.802 10.291,-15.123 18.806,-31.618 25.233,-49.125 h 52.205 l 17.335,-26.249 h -61.674 c 2.013,-8.58 3.537,-17.342 4.544,-26.25 h 45.066 l 17.334,-26.248 h -60.957 l 0.493,-183.745 h 56.372 z m -296.822,310.517 c -5.761,-0.596 -11.387,-1.575 -16.868,-2.909 -6.737,-1.641 -13.255,-3.818 -19.528,-6.487 -22.676,-9.651 -42.102,-25.856 -55.736,-46.167 -13.63,-20.344 -21.496,-44.505 -21.445,-70.95 l 0.212,-78.983 h 32.202 l 17.819,-26.246 h -49.95 l 0.404,-150.873 c 0.055,-17.654 3.641,-34.204 10.082,-49.337 5.665,-13.312 13.592,-25.502 23.279,-36.06 h 45.386 l 17.332,-26.244 h -28.885 c 9.193,-4.916 19.026,-8.724 29.387,-11.255 5.541,-1.354 11.234,-2.34 17.057,-2.94 12.844,1.328 25.021,4.558 36.397,9.398 22.675,9.652 42.102,25.857 55.735,46.166 12.22,18.239 19.802,39.549 21.206,62.82 h -27.083 v 27.853 h 27.272 l -0.634,236.379 c -0.055,17.654 -3.642,34.205 -10.082,49.337 -9.651,22.676 -25.856,42.104 -46.166,55.736 -16.815,11.264 -36.234,18.586 -57.393,20.762 z"
   id="path9" />
	<path
   d="m 775.797,1031.259 0.016,-5.952 -89.44,-0.239 0.615,-229.249 h -27.073 v -27.853 h 27.147 l 0.35,-130.442 h 52.158 l 17.334,-26.249 h -69.422 l 0.14,-52.241 -69.624,-0.186 -26.879,-0.073 -0.058,0.089 -34.612,52.411 h 26.926 l -17.335,26.249 h -26.926 l -0.003,0.006 -17.334,26.246 H 577.36 L 560.029,690.02 H 504.446 L 383.115,873.739 h 21.546 l -17.336,26.246 h -21.543 l -17.355,26.278 h -80.3 l -17.335,26.25 h 80.3 l -47.203,71.475 -0.02,7.272 h -54.886 l -17.335,26.248 h 72.15 l -0.17,62.981 305.981,0.822 -0.038,14.142 h 27.498 v 27.852 h -27.572 l -0.068,25.448 -0.07,26.249 -0.14,52.236 66.068,0.178 v 0.084 h 89.061 l 17.335,-26.249 h -75.892 l 0.07,-26.249 h 44.358 l 17.335,-26.249 h -61.622 l 0.18,-67.113 v -0.072 l 26.926,0.072 34.62,0.093 27.895,0.075 v -0.073 l 0.032,-11.73 h 24.394 l 2.542,-3.85 14.793,-22.4 h -41.659 l 0.069,-26.25 h 52.512 l 17.336,-26.248 h -69.775 z m -185.876,-25.448 -0.051,18.925 v 0.073 l -27.855,-0.075 -145.866,-0.392 48.683,-71.829 h -60.307 l 15.572,-23.581 1.762,-2.668 h 60.764 l 79.947,-117.956 27.992,-41.3 -0.107,39.886 -0.459,171.065 h 27.78 v 27.854 h -27.855 z"
   id="path10" />
	<path
   d="m 2200.749,1031.259 0.016,-5.952 -89.44,-0.239 0.616,-229.249 h -27.073 v -27.853 h 27.147 l 0.35,-130.442 h 52.157 l 17.334,-26.249 h -69.42 l 0.139,-52.241 -69.624,-0.186 -26.879,-0.073 -0.059,0.089 -34.619,52.422 0.01,-0.01 h 26.926 l -3.821,5.784 -13.515,20.465 h -26.926 v 0.006 l -17.334,26.246 h 55.582 l -17.331,26.244 h -55.582 l -121.33,183.718 h 21.547 l -17.337,26.246 h -21.542 l -17.354,26.278 h -80.301 l -17.334,26.25 h 80.3 l -47.203,71.475 -0.02,7.272 h -54.885 l -17.336,26.248 h 72.152 l -0.171,62.981 305.981,0.822 -0.038,14.142 h 27.498 v 27.852 h -27.572 l -0.068,25.448 -0.071,26.249 -0.139,52.236 66.068,0.178 v 0.084 h 89.061 l 17.336,-26.249 h -75.893 l 0.071,-26.249 h 44.358 l 17.334,-26.249 h -61.621 l 0.179,-67.113 v -0.072 l 26.928,0.072 34.618,0.093 27.895,0.075 v -0.073 l 0.031,-11.73 h 24.394 l 2.544,-3.85 14.792,-22.4 h -41.659 l 0.07,-26.25 h 52.511 l 17.335,-26.248 h -69.777 z m -185.877,-25.448 -0.051,18.925 v 0.073 l -27.855,-0.075 -145.866,-0.392 48.684,-71.829 h -60.309 l 15.573,-23.581 1.762,-2.668 h 60.764 l 79.947,-117.956 27.991,-41.3 -0.107,39.886 -0.459,171.065 h 27.78 v 27.854 h -27.854 z"
   id="path11" />
	<path
   d="m 1487.958,1057.507 h 43.312 l 17.335,-26.248 h -59.203 l 0.493,-183.745 h -16.021 l 0.07,-26.249 h 16.021 l 0.121,-44.9 c 0.089,-30.417 -5.887,-59.687 -16.792,-86.344 h -17.524 c -3.898,-9.077 -8.364,-17.84 -13.355,-26.249 h 18.11 c -5.22,-9.174 -11.059,-17.941 -17.457,-26.249 h 66.861 l 17.335,-26.249 h -106.396 v 1.422 c -9.323,-9.003 -19.418,-17.214 -30.181,-24.531 -32.776,-22.303 -71.994,-36.268 -113.999,-38.699 -4.196,-0.242 -8.419,-0.372 -12.666,-0.382 -5.97,-0.017 -11.896,0.2 -17.767,0.641 -24.769,1.862 -48.558,7.725 -70.527,16.955 -25.499,10.712 -48.574,25.897 -68.283,44.591 h 36.232 c -8.554,8.114 -16.473,16.891 -23.682,26.249 h -36.232 c -2.751,3.571 -5.399,7.225 -7.939,10.961 -23.413,34.406 -37.637,75.908 -38.977,120.285 h -83.693 l -17.335,26.249 h 100.87 l -0.352,131.246 H 971.16 l -17.336,26.25 h 82.441 l -0.212,78.737 v 0.01 h -77.24 l -17.335,26.248 h 96.016 c 2.454,21.717 7.987,42.59 16.156,62.036 10.88,25.9 26.377,49.299 45.479,69.211 h 64.885 c 9.206,9.595 19.25,18.382 30.018,26.247 h -64.888 c 2.076,1.517 4.178,3 6.307,4.448 31.869,21.686 69.825,35.486 110.514,38.469 5.339,0.391 10.725,0.599 16.152,0.611 v 10e-4 c 4.644,0.014 9.26,-0.117 13.845,-0.382 26.181,-1.514 51.322,-7.5 74.449,-17.215 40.79,-17.135 75.375,-45.715 99.904,-81.802 10.291,-15.123 18.806,-31.618 25.233,-49.125 H 1526 l 17.334,-26.249 h -59.92 c 2.013,-8.578 3.538,-17.34 4.544,-26.248 z m -274.91,91.129 c -22.675,-9.651 -42.102,-25.856 -55.735,-46.167 -13.63,-20.344 -21.496,-44.505 -21.446,-70.95 l 0.212,-78.983 h -9.976 l 0.06,-26.246 h 9.988 l 0.404,-150.873 c 0.054,-17.654 3.641,-34.204 10.081,-49.337 9.651,-22.676 25.857,-42.103 46.167,-55.737 3.441,-2.305 6.993,-4.441 10.645,-6.406 l 0.105,-0.161 h 0.193 c 13.024,-6.964 27.336,-11.703 42.601,-13.743 5.677,-0.759 11.484,-1.148 17.407,-1.137 4.383,0.013 8.698,0.245 12.941,0.685 12.844,1.328 25.021,4.558 36.397,9.398 22.675,9.652 42.102,25.857 55.735,46.166 12.22,18.239 19.802,39.549 21.206,62.82 h -27.083 v 27.853 h 27.272 l -0.634,236.379 c -0.055,17.654 -3.642,34.205 -10.082,49.337 -9.651,22.676 -25.856,42.104 -46.166,55.736 -16.811,11.263 -36.23,18.585 -57.389,20.762 -4.447,0.458 -8.969,0.693 -13.562,0.685 h -10e-4 c -5.621,-0.018 -11.13,-0.395 -16.518,-1.107 -11.533,-1.524 -22.508,-4.586 -32.822,-8.974 z m 200.904,-142.825 v -27.854 h 32.151 v 27.854 z"
   id="path12" />
	<polygon
   style="fill:#e72685"
   points="725.934,847.515 869.738,847.515 887.072,821.266 743.269,821.266 "
   id="polygon12" />
	<polygon
   style="fill:#e72685"
   points="2150.885,847.515 2294.69,847.515 2312.024,821.266 2168.221,821.266 "
   id="polygon13" />
	<polygon
   points="393.924,768.768 250.12,768.768 232.786,795.017 376.589,795.017 "
   id="polygon14" />
	<polygon
   points="1818.877,768.768 1675.073,768.768 1657.738,795.017 1801.542,795.017 "
   id="polygon15" />
</g>
</svg>
