<svg width="120" height="40" xmlns="http://www.w3.org/2000/svg"><g transform="matrix(.2702 0 0 .28035 -21.74 -7.958)"><g fill="none" stroke="#80d8ff" stroke-width="2"><path d="M129.72 49.95q-8.44.06-16.91.06-11.82.01-15.88 1.5C87.36 55.04 81.65 66.04 81.52 76q-.13 9.22.01 55.22.03 8.7 1.22 12.79c2.72 9.31 9.94 16.92 20 17.5q3.4.19 6.89.26a1 .99-4.2 0 1 .96.82q.67 3.61 3.3 5.65c5.37 4.17 11.86.81 13.21-5.69a1.01 1-83.9 0 1 .98-.8h55.51a1 1 0 0 1 .98.8c1.97 9.72 15.41 9.51 16.36.97q.22-1.93 2.16-1.86c8.98.32 14.85-1.15 20.47-8.4q6.07-7.82 6.09-18.77.09-38.31-.05-55.78c-.09-10.98-3.75-22.28-14.65-26.95q-3.52-1.51-10.16-1.64-11.68-.24-23.41-.1-1.92.03-.59-1.35 4.95-5.12 9.98-10.13c5.47-5.45-1.87-12.12-6.23-7.73q-9.39 9.45-18.92 18.89a1.06 1.03 21.8 0 1-.7.29l-18.14.04a1.04 1.03-22.8 0 1-.72-.29q-8.96-9.04-18-18.03c-6.05-6.01-12.13 2.18-7.65 6.38q5.21 4.9 10.03 10.19 1.51 1.66-.73 1.67m145.11 66.52q-4.44-37.18-3.29-74.6a1 1 0 0 0-1.37-.96l-19.83 7.89a1 1 0 0 0-.61 1.13c7.57 36.6 11.68 74.29 14.82 111.53a1.01 1-1.6 0 0 .97.91q21.98.76 42.42-7.12c7.6-2.94 22.04-11.55 20.04-21.18-.96-4.6-6.64-7.56-10.66-9.36q-20.06-8.99-41.42-7.36a1.01 1 84.3 0 1-1.07-.88m164.13 41.43c9.39-2.71 26.95-10.07 27.98-21.66.46-5.23-3.8-7.87-8.07-10.05q-20.77-10.63-44.19-8.84a1 .99 84.3 0 1-1.07-.88q-4.39-37.19-3.18-74.62a1 .99 80.1 0 0-1.36-.96l-19.85 7.88a1 1 0 0 0-.61 1.13q4.05 20.07 6.86 40.36 4.93 35.53 7.95 71.3a1 .99 87.8 0 0 .98.91q17.64.31 34.56-4.57m-75.24-8.46a1.01 1-1.5 0 0 1.03-1.08l-7.44-93.12a1 .99-4.6 0 0-1.08-.91l-12.58 1.02a1.01 1-7.1 0 0-.91 1.16q7.67 45.63 11.28 91.76a1 .99 88.4 0 0 .97.92l8.73.25m117.86-92.93q7.61 45.63 11.24 91.75a1.01 1.01 0 0 0 .97.93l8.74.24a1 1 0 0 0 1.02-1.08l-7.41-93.11a1 1 0 0 0-1.08-.92l-12.57 1.03a1.01 1-7.1 0 0-.91 1.16M338.408 77.1a.27.27 0 0 0-.299-.237l-6.417.743a.27.27 0 0 0-.237.299l2.177 18.814a.27.27 0 0 0 .299.238l6.417-.743a.27.27 0 0 0 .237-.299L338.408 77.1m138.829-.013a.27.27 0 0 0-.3-.238l-6.378.727a.27.27 0 0 0-.238.299l2.142 18.798a.27.27 0 0 0 .3.238l6.378-.727a.27.27 0 0 0 .237-.299l-2.141-18.798M329.11 78.73a.49.49 0 0 0-.56-.42l-5.73.87a.49.49 0 0 0-.41.58l3.27 18a.49.49 0 0 0 .59.39l4.8-1.08a.49.49 0 0 0 .38-.54l-2.34-17.8m138.94.97c-.3-2.07-4.88-1.1-6.22-.41a1.02 1.01-19.4 0 0-.52 1.07l3.13 16.91a1 1 0 0 0 1.23.79l3.65-.91a1.01 1 80.1 0 0 .75-1.08q-.95-8.96-2.02-16.37m-84.404.093a.61.61 0 0 0-.617-.603l-5.86.061a.61.61 0 0 0-.603.617l.188 17.959a.61.61 0 0 0 .617.603l5.86-.061a.61.61 0 0 0 .603-.617l-.188-17.959m138.763-.263a.29.29 0 0 0-.293-.287l-6.36.055a.29.29 0 0 0-.287.293l.162 18.539a.29.29 0 0 0 .293.287l6.36-.055a.29.29 0 0 0 .287-.293l-.162-18.539m-148.558.318a.5.5 0 0 0-.52-.479l-5.216.219a.5.5 0 0 0-.478.52l.752 17.944a.5.5 0 0 0 .52.479l5.216-.219a.5.5 0 0 0 .478-.52l-.752-17.944m138.734-.098a.37.37 0 0 0-.387-.353l-5.414.246a.37.37 0 0 0-.353.386l.824 18.141a.37.37 0 0 0 .387.353l5.414-.246a.37.37 0 0 0 .353-.386l-.824-18.141M341 102.62c-3.96-.67-9.65.51-13.73 1.49a1 .99 77.7 0 0-.74 1.17l9.47 47.88a1 .99-8.2 0 0 1.08.8l9.4-.93a.99.99 0 0 0 .9-1.08q-2.21-24.31-5.55-48.48a1.02 1 1.3 0 0-.83-.85m145.2 49.34q-2.21-24.54-5.64-48.96a1 1 0 0 0-1.12-.85l-13.29 1.72a.99.99 0 0 0-.85 1.18l9.51 48.11a1.01 1.01 0 0 0 1.08.8l9.41-.92a.99.99 0 0 0 .9-1.08m35.78-47.22q-6.84-.85-13.63.05a1 .99-6.2 0 0-.87 1.08l4.57 48.76a1 .99 86.6 0 0 1.01.9l9.54-.15a.99.99 0 0 0 .98-1.01l-.73-48.65a1 1 0 0 0-.87-.98m-138.86-.21-13.44.06a1 1 0 0 0-.99 1.09l4.51 48.91a1 .99 87.5 0 0 .99.91h9.47a1 1 0 0 0 1-1.01l-.53-48.97a1.01 1 89.1 0 0-1.01-.99" vector-effect="non-scaling-stroke"/><path d="M212.72 74.15a9.21 9.21 0 0 0-9.21-9.21h-95.78a9.21 9.21 0 0 0-9.21 9.21v63.64a9.21 9.21 0 0 0 9.21 9.21h95.78a9.21 9.21 0 0 0 9.21-9.21V74.15m72.86 55.61a.71.71 0 0 0-.94.76l2.74 19.05a.71.71 0 0 0 1.13.47l16.19-12.05a.71.71 0 0 0-.17-1.24l-18.95-6.99m138.66-.04a.62.62 0 0 0-.83.67l2.78 19.34a.62.62 0 0 0 .99.41l16.47-12.25a.62.62 0 0 0-.16-1.07l-19.25-7.1" vector-effect="non-scaling-stroke"/><path d="M139.06 86.311a.45.45 0 0 0-.527-.356l-30.048 5.786a.45.45 0 0 0-.356.527l2.09 10.86a.45.45 0 0 0 .528.357l30.048-5.786a.45.45 0 0 0 .357-.527l-2.092-10.86m64.617 5.869a.37.37 0 0 0-.293-.433l-30.018-5.835a.37.37 0 0 0-.434.292l-2.148 11.053a.37.37 0 0 0 .292.434l30.018 5.835a.37.37 0 0 0 .434-.292l2.149-11.053M150.51 123.28c-3.3 3.58-6.79.82-9.19-2.18a1.01 1 54.2 0 0-1.33-.22l-3.31 2.15a1.01 1 56.3 0 0-.28 1.42q1.85 2.59 4.53 4.39 6.53 4.41 14.17-1.17a1.01 1.01 0 0 1 1.33.13c3.37 3.66 8.69 4.01 12.97 1.59q3.18-1.8 5.38-4.93a1.01 1-56.3 0 0-.28-1.42l-3.27-2.1a1.02 1.01-49.6 0 0-1.21.1l-4.11 3.64q-1.93 1.72-4.12-.22-3.26-2.89-5.29-6.75-.82-1.57-1.74-.05-1.78 2.95-4.25 5.62" vector-effect="non-scaling-stroke"/></g><path fill="#00b1ff" d="M130.45 48.28q-4.82-5.29-10.03-10.19c-4.48-4.2 1.6-12.39 7.65-6.38q9.04 8.99 18 18.03a1.04 1.03-22.8 0 0 .72.29l18.14-.04a1.06 1.03 21.8 0 0 .7-.29q9.53-9.44 18.92-18.89c4.36-4.39 11.7 2.28 6.23 7.73q-5.03 5.01-9.98 10.13-1.33 1.38.59 1.35 11.73-.14 23.41.1 6.64.13 10.16 1.64c10.9 4.67 14.56 15.97 14.65 26.95q.14 17.47.05 55.78-.02 10.95-6.09 18.77c-5.62 7.25-11.49 8.72-20.47 8.4q-1.94-.07-2.16 1.86c-.95 8.54-14.39 8.75-16.36-.97a1 1 0 0 0-.98-.8h-55.51a1.01 1-83.9 0 0-.98.8c-1.35 6.5-7.84 9.86-13.21 5.69q-2.63-2.04-3.3-5.65a1 .99-4.2 0 0-.96-.82q-3.49-.07-6.89-.26c-10.06-.58-17.28-8.19-20-17.5q-1.19-4.09-1.22-12.79-.14-46-.01-55.22c.13-9.96 5.84-20.96 15.41-24.49q4.06-1.49 15.88-1.5 8.47 0 16.91-.06 2.24-.01.73-1.67zm82.27 25.87a9.21 9.21 0 0 0-9.21-9.21h-95.78a9.21 9.21 0 0 0-9.21 9.21v63.64a9.21 9.21 0 0 0 9.21 9.21h95.78a9.21 9.21 0 0 0 9.21-9.21zm63.18 43.2q21.36-1.63 41.42 7.36c4.02 1.8 9.7 4.76 10.66 9.36 2 9.63-12.44 18.24-20.04 21.18q-20.44 7.88-42.42 7.12a1.01 1-1.6 0 1-.97-.91c-3.14-37.24-7.25-74.93-14.82-111.53a1 1 0 0 1 .61-1.13l19.83-7.89a1 1 0 0 1 1.37.96q-1.15 37.42 3.29 74.6a1.01 1 84.3 0 0 1.07.88zm9.68 12.41a.71.71 0 0 0-.94.76l2.74 19.05a.71.71 0 0 0 1.13.47l16.19-12.05a.71.71 0 0 0-.17-1.24zm181.36 6.48c-1.03 11.59-18.59 18.95-27.98 21.66q-16.92 4.88-34.56 4.57a1 .99 87.8 0 1-.98-.91q-3.02-35.77-7.95-71.3-2.81-20.29-6.86-40.36a1 1 0 0 1 .61-1.13l19.85-7.88a1 .99 80.1 0 1 1.36.96q-1.21 37.43 3.18 74.62a1 .99 84.3 0 0 1.07.88q23.42-1.79 44.19 8.84c4.27 2.18 8.53 4.82 8.07 10.05zm-42.7-6.52a.62.62 0 0 0-.83.67l2.78 19.34a.62.62 0 0 0 .99.41l16.47-12.25a.62.62 0 0 0-.16-1.07zm-60.52 19.72-8.73-.25a1 .99 88.4 0 1-.97-.92q-3.61-46.13-11.28-91.76a1.01 1-7.1 0 1 .91-1.16l12.58-1.02a1 .99-4.6 0 1 1.08.91l7.44 93.12a1.01 1-1.5 0 1-1.03 1.08zm118.77-94.09 12.57-1.03a1 1 0 0 1 1.08.92l7.41 93.11a1 1 0 0 1-1.02 1.08l-8.74-.24a1.01 1.01 0 0 1-.97-.93q-3.63-46.12-11.24-91.75a1.01 1-7.1 0 1 .91-1.16z"/><rect width="7" height="19.48" x="-3.5" y="-9.74" fill="#00b1ff" rx=".27" transform="rotate(-6.6 921.657 -2870.368)"/><rect width="6.96" height="19.46" x="-3.48" y="-9.73" fill="#00b1ff" rx=".27" transform="rotate(-6.5 1002.428 -4137.747)"/><path fill="#00b1ff" d="m329.11 78.73 2.34 17.8a.49.49 0 0 1-.38.54l-4.8 1.08a.49.49 0 0 1-.59-.39l-3.27-18a.49.49 0 0 1 .41-.58l5.73-.87a.49.49 0 0 1 .56.42zm132.72.56c1.34-.69 5.92-1.66 6.22.41q1.07 7.41 2.02 16.37a1.01 1 80.1 0 1-.75 1.08l-3.65.91a1 1 0 0 1-1.23-.79l-3.13-16.91a1.02 1.01-19.4 0 1 .52-1.07z"/><rect width="7.08" height="19.18" x="-3.54" y="-9.59" fill="#00b1ff" rx=".61" transform="rotate(-.6 8670.753 -36261.689)"/><rect width="6.94" height="19.12" x="-3.47" y="-9.56" fill="#00b1ff" rx=".29" transform="rotate(-.5 10438.614 -59430.519)"/><rect width="6.22" height="18.96" x="-3.11" y="-9.48" fill="#00b1ff" rx=".5" transform="rotate(-2.4 2308.774 -8814.067)"/><rect width="6.16" height="18.9" x="-3.08" y="-9.45" fill="#00b1ff" rx=".37" transform="rotate(-2.6 2215.02 -11190.616)"/><rect width="31.5" height="11.96" x="-15.75" y="-5.98" fill="#00b1ff" rx=".45" transform="rotate(-10.9 558.713 -605.832)"/><rect width="31.32" height="12" x="-15.66" y="-6" fill="#00b1ff" rx=".37" transform="rotate(11 -398.237 1019.589)"/><path fill="#00b1ff" d="M327.27 104.11c4.08-.98 9.77-2.16 13.73-1.49a1.02 1 1.3 0 1 .83.85q3.34 24.17 5.55 48.48a.99.99 0 0 1-.9 1.08l-9.4.93a1 .99-8.2 0 1-1.08-.8l-9.47-47.88a1 .99 77.7 0 1 .74-1.17zm158.03 48.93-9.41.92a1.01 1.01 0 0 1-1.08-.8l-9.51-48.11a.99.99 0 0 1 .85-1.18l13.29-1.72a1 1 0 0 1 1.12.85q3.43 24.42 5.64 48.96a.99.99 0 0 1-.9 1.08zm36.68-48.3a1 1 0 0 1 .87.98l.73 48.65a.99.99 0 0 1-.98 1.01l-9.54.15a1 .99 86.6 0 1-1.01-.9l-4.57-48.76a1 .99-6.2 0 1 .87-1.08q6.79-.9 13.63-.05zm-138.86-.21a1.01 1 89.1 0 1 1.01.99l.53 48.97a1 1 0 0 1-1 1.01h-9.47a1 .99 87.5 0 1-.99-.91l-4.51-48.91a1 1 0 0 1 .99-1.09zm-232.61 18.75q2.47-2.67 4.25-5.62.92-1.52 1.74.05 2.03 3.86 5.29 6.75 2.19 1.94 4.12.22l4.11-3.64a1.02 1.01-49.6 0 1 1.21-.1l3.27 2.1a1.01 1-56.3 0 1 .28 1.42q-2.2 3.13-5.38 4.93c-4.28 2.42-9.6 2.07-12.97-1.59a1.01 1.01 0 0 0-1.33-.13q-7.64 5.58-14.17 1.17-2.68-1.8-4.53-4.39a1.01 1 56.3 0 1 .28-1.42l3.31-2.15a1.01 1 54.2 0 1 1.33.22c2.4 3 5.89 5.76 9.19 2.18z"/></g></svg>