<svg width="332" height="126" fill="none" xmlns="http://www.w3.org/2000/svg"><g clip-path="url(#a)" stroke="#F0F0F0"><path d="M-72.442 136.673 77.602-148.233M-66.251 139.935 83.793-144.972M-60.056 143.197 89.989-141.71M-53.864 146.458 96.18-138.448M-47.669 149.72l150.044-284.906M-41.478 152.982l150.045-284.907M-35.282 156.244l150.044-284.907M-29.087 159.505l150.044-284.906m-143.852 288.17 150.044-284.907M-16.7 166.031l150.044-284.907M-10.509 169.292l150.044-284.906M-4.313 172.554l150.044-284.906M1.878 175.816l150.044-284.907M8.073 179.078l150.044-284.907M14.268 182.339l150.045-284.906M20.46 185.601 170.504-99.305M26.655 188.863 176.699-96.044M32.847 192.124 182.891-92.782M39.042 195.386 189.086-89.52M45.233 198.648 195.278-86.259M51.429 201.91 201.473-82.997M57.62 205.171 207.664-79.735M63.815 208.433 213.86-76.474M70.011 211.695 220.055-73.212M76.202 214.956 226.246-69.95M82.397 218.218 232.442-66.688M88.589 221.48 238.633-63.427M94.784 224.742 244.828-60.165m-143.852 288.17L251.02-56.901M107.171 231.267 257.215-53.639M113.362 234.529 263.406-50.378M119.558 237.79 269.602-47.116M125.753 241.052 275.797-43.854M131.944 244.314 281.989-40.593M138.14 247.576 288.184-37.331M144.331 250.837 294.375-34.069M150.526 254.099 300.571-30.808M156.718 257.361 306.762-27.546M162.913 260.622 312.957-24.284M169.104 263.884 319.149-21.022M175.3 267.146 325.344-17.761M181.495 270.408 331.539-14.499M187.687 273.669 337.731-11.237M193.882 276.931 343.926-7.975M200.073 280.193 350.117-4.714M206.269 283.455 356.313-1.452M212.46 286.718 362.504 1.812M218.655 289.98 368.699 5.073M224.851 293.242 374.895 8.335M231.042 296.503 381.086 11.597M237.237 299.765 387.281 14.858"/></g><defs><clipPath id="a"><path fill="#fff" d="M0 0h332v126H0z"/></clipPath></defs></svg>