<svg width="30" height="30" fill="none" xmlns="http://www.w3.org/2000/svg"><path d="M25.5 26.063V27h-21v-.938c0-.31.252-.562.563-.562H6V8.625C6 8.004 6.504 7.5 7.125 7.5h4.125V4.125c0-.621.504-1.125 1.125-1.125h5.25c.621 0 1.125.504 1.125 1.125V7.5h4.125c.621 0 1.125.504 1.125 1.125V25.5h.938c.31 0 .562.252.562.563ZM18.937 12h-1.875a.563.563 0 0 0-.562.563v1.874c0 .311.252.563.563.563h1.875c.31 0 .562-.252.562-.563v-1.874a.563.563 0 0 0-.563-.563Zm-7.875 3h1.876c.31 0 .562-.252.562-.563v-1.874a.563.563 0 0 0-.563-.563h-1.874a.563.563 0 0 0-.563.563v1.874c0 .311.252.563.563.563Zm4.876 6h-1.876a.563.563 0 0 0-.562.563V25.5h3v-3.938a.563.563 0 0 0-.563-.562Zm3-4.5h-1.875a.563.563 0 0 0-.563.563v1.875c0 .31.252.562.563.562h1.875c.31 0 .562-.252.562-.563v-1.875a.563.563 0 0 0-.563-.562Zm-5.438.563a.563.563 0 0 0-.563-.563h-1.874a.563.563 0 0 0-.563.563v1.875c0 .31.252.562.563.562h1.874a.563.563 0 0 0 .563-.563v-1.875ZM13.031 7.5h1.219v1.219a.281.281 0 0 0 .281.281h.938a.281.281 0 0 0 .281-.281V7.5h1.219a.281.281 0 0 0 .281-.281V6.28a.281.281 0 0 0-.281-.28H15.75V4.781a.281.281 0 0 0-.281-.281h-.938a.281.281 0 0 0-.281.281V6h-1.219a.281.281 0 0 0-.281.281v.938a.281.281 0 0 0 .281.281Z" fill="#311D1D"/></svg>