<svg version="1.1" id="Слой_1" x="0" y="0" xml:space="preserve" width="208" height="60" xmlns="http://www.w3.org/2000/svg"><style type="text/css" id="style1">.st0{fill:#222}.st1{fill:#d5d5d5}</style><g id="g18" transform="scale(1 .99834)"><g id="g17"><path class="st0" d="M38.3 56s1.6-.3 1.6-2.7c0-2.3-1.5-2.3-1.5-2.3h-7.6v8h1.5v-3h2.6l3 3.1h2.6L37.3 56Zm-6-1v-3h5.1s1.1 0 1.1 1.4-1 1.6-1 1.6z" id="path1"/><path class="st0" d="M149.7 56h1s1.6-.3 1.6-2.7c0-2.3-1.6-2.3-1.6-2.3h-7.6v8h1.5v-3h2.6m-2.5-1v-3h5.1s1.1 0 1.1 1.4-1.1 1.6-1.1 1.6z" id="path2"/><ellipse class="st0" cx="104" cy="23.5" rx="104" ry="23.5" id="ellipse2"/><g id="g4"><g id="g3"><path class="st1" d="M103.9 3.1c60.3 0 100.9 10.6 100.9 20.5S164.3 44.1 104 44.1 3.1 33.5 3.1 23.6 43.6 3.1 103.9 3.1m0-1C47.7 2.1 2.1 11.7 2.1 23.6S47.7 45.1 104 45.1c56.3 0 101.9-9.6 101.9-21.5s-45.7-21.5-102-21.5z" id="path3"/></g></g><g id="g5"><path class="st1" d="M48.9 23.2v.2H9.7v-.2h39.2m1-1H8.6v2.3h41.3z" id="path4"/></g><g id="g6"><path class="st1" d="M197.7 23.5v.2h-39.2v-.2h39.2m1-1.1h-41.3v2.3h41.3z" id="path5"/></g><path class="st0" id="rect6" d="M136.6 51h2.4v8h-2.4z"/><path class="st0" id="rect7" d="M57 51h2.4v8H57z"/><path class="st0" d="M130.7 51v6.3c0 .1-.1.3-.3.3h-4.6c-.1 0-.3-.1-.3-.3V51h-2v6.6c0 .8.6 1.4 1.4 1.4h6.3c.8 0 1.4-.6 1.4-1.4V51Z" id="path7"/><path class="st0" id="polygon7" d="M175.9 54h-4.1v-1.6h6.6V51h-8.6v8h8.6v-1.4h-6.6v-2.1h4.1z"/><path class="st0" id="polygon8" d="M103.2 54h-4.1v-1.6h6.6V51h-8.6v8h8.6v-1.4h-6.6v-2.1h4.1z"/><path class="st1" d="M63.7 21.4h11.2v8.5s-.3 3.2-3.7 3.2H57.1s-4.1.2-4.1-4.5V17.8s.2-4 4.1-4h15.1s2.7.1 2.7 2.8v3l-4.6.8-.1-2.2H58.6v10.3h11.7v-3.2h-6.6z" id="path8"/><path class="st0" d="M48.3 54.2h5.2v3.6s-.1 1.3-1.7 1.3h-6.5s-1.9.1-1.9-1.9v-4.5s.1-1.7 1.9-1.7h7s1.2.1 1.2 1.2v1.2l-2.1.3v-.9H46v4.3h5.4v-1.3h-3.1z" id="path9"/><path class="st0" d="M81.9 54.2h5.2v3.6s-.1 1.3-1.7 1.3h-6.5s-1.9.1-1.9-1.9v-4.5s0-1.7 1.8-1.7h7s1.2.1 1.2 1.2v1.2l-2 .4v-.9h-5.4v4.3H85v-1.3h-3.1z" id="path10"/><path class="st1" d="M120.7 21.5h11.2V30s-.3 3.2-3.7 3.2h-14.1s-4.2.1-4.2-4.5V17.9s.2-4 4.1-4h15.1s2.7.1 2.7 2.8v3l-4.6.8-.1-2.2h-11.7v10.3h11.7v-3.2h-6.6z" id="path11"/><path class="st1" d="M148.7 17.3h-4l-9.2 15.3 5.1-.1 1.8-3.1h8.6l1.8 3.1 5.1.1zm-2 8.5h-2.6l2.6-4.8 2.6 4.8z" id="path12"/><path class="st1" id="polygon12" d="M81.5 32.5h15.3v-3.6H85.7V17.2h-4.2z"/><path class="st1" id="rect12" d="M99.9 17.2h4.4v15.3h-4.4z"/><path class="st0" d="M25.2 51h-7c-1 0-1.9.8-1.9 1.9v4.3c0 1 .8 1.9 1.9 1.9h7c1 0 1.9-.8 1.9-1.9v-4.3c0-1.1-.9-1.9-1.9-1.9Zm-.1 5.7c0 .2-.2.4-.4.4h-5.8c-.2 0-.4-.2-.4-.4v-3.3c0-.2.2-.4.4-.4h5.8c.2 0 .4.2.4.4z" id="path13"/><path class="st0" d="M71.4 51v5.6L65 51h-1.8v8H65v-5.7s6.5 5.8 6.5 5.7h1.8v-8z" id="path14"/><path class="st0" d="M190.3 51v5.6l-6.5-5.6H182v8h1.8v-5.7s6.5 5.8 6.5 5.7h1.8v-8z" id="path15"/><path class="st0" id="polygon15" d="M7.7 52.5h6.6V51H5.6v8h2.1v-2.9h3.8v-1.6H7.7z"/><path class="st0" d="M117.8 51h-7c-1 0-1.9.8-1.9 1.9v4.3c0 1 .8 1.9 1.9 1.9h4l.4 1h2l-.5-1h1c1 0 1.9-.8 1.9-1.9v-4.3c0-1.1-.8-1.9-1.8-1.9zm-.2 5.7c0 .2-.2.4-.4.4h-1.5l-1.1-2.1h-1.7l1 2.1h-2.5c-.2 0-.4-.2-.4-.4v-3.3c0-.2.2-.4.4-.4h5.8c.2 0 .4.2.4.4z" id="path16"/><path class="st0" id="polygon16" d="M197.9 59h1.7v-6.8h3.8V51h-9.2v1.2h3.7z"/><path class="st0" id="polygon17" d="M156.7 51h-1.5v8h1.5v-5.5l3.8 4.9 3.8-4.9v5.6h1.5V51h-1.5l-3.8 5z"/></g></g></svg>