<svg width="162" height="60" xmlns="http://www.w3.org/2000/svg"><path style="fill:#144579;fill-opacity:1" d="M959.803 776.928c0-.74 2.022-16.827 4.492-35.75 2.47-18.924 4.495-34.969 4.5-35.656.01-.97 6.18-1.25 27.508-1.25 15.125 0 27.492.337 27.483.75-.01.412-1.06 8.736-2.336 18.498-1.275 9.76-2.092 17.973-1.816 18.25.277.276 13.3.502 28.943.502 26.682 0 28.398.108 27.75 1.75-.38.962-3.09 8.275-6.024 16.25-2.933 7.975-5.644 15.287-6.023 16.25-.645 1.635-4.091 1.75-52.584 1.75-42.781 0-51.893-.236-51.893-1.344zm249.012 62.094c.01-.138 1.801-9.925 3.988-21.75l3.977-21.5.012-41.75.011-41.75h129.98l.26 45.25.26 45.25 9.25.287c5.087.158 9.25.593 9.25.965 0 .373-2.812 8.493-6.249 18.046l-6.249 17.367-21-.333-21.002-.332-5.359-2.968c-2.947-1.633-6.86-4.723-8.696-6.867-6.16-7.197-6.445-9.268-6.445-46.843v-33.822h-18v23.278c0 22.835-.076 23.697-4 45.222-2.2 12.068-4 22.068-4 22.221 0 .153-12.6.279-28 .279s-27.995-.113-27.988-.25zm-706.012 44.034c1.925-1.737 17.403-16.011 34.396-31.721l30.896-28.563-31.146-.265-31.146-.264v-35.971h77v-24h-36.067c-33.88 0-36.036-.106-35.55-1.75.286-.963 3.709-13.225 7.607-27.25 3.899-14.025 7.326-26.288 7.617-27.25.487-1.614 2.75-1.75 28.98-1.75h28.451l-.67 2.75c-.368 1.512-1.67 6.22-2.891 10.46-1.222 4.242-1.979 7.954-1.682 8.25.296.297 28.844.54 63.44.54 62.326 0 62.894.018 62.269 1.988-.347 1.094-3.23 9.082-6.404 17.75l-5.773 15.762-26.164.266-26.163.267v23.967h79.72l-6.52 18-6.52 18-34.59.042-34.59.042-7.344 6.958-7.343 6.958h48.811l26.916 24.75 26.915 24.75-34.276.263-34.276.263-21.201-19.622c-11.661-10.791-21.745-19.838-22.41-20.104-.665-.265-10.944 8.559-22.842 19.609l-21.634 20.09-34.658-.029-34.658-.029z" transform="matrix(.11182 0 0 .1116 9.283 -74.59)"/><path style="fill:#ac2929;fill-opacity:1" d="M174.04 668.354c-.405.044-27.158 27.832-59.452 61.75A102729.626 102729.626 0 0 1 14.338 835.24c-22.844 23.908-41.535 43.805-41.535 44.215 0 .41 22.162 23.917 49.25 52.236 27.087 28.32 49.478 51.398 49.756 51.286.596-.243 38.624-39.815 75.888-78.971 14.517-15.254 26.513-27.735 26.657-27.735.143 0 23.257 24.034 51.363 53.409l51.1 53.41 11.347-11.66c29.966-30.79 87.639-91.494 87.639-92.244 0-.465-40.128-42.823-89.172-94.13-109.062-114.091-111.678-116.804-112.592-116.702Zm.296 93.917c.261 0 88.981 92.746 108.336 113.252l3.543 3.754-4.414 4.496c-2.428 2.474-4.703 4.498-5.055 4.498-.352 0-22.26-22.612-48.687-50.25-26.427-27.637-49.391-51.52-51.032-53.072l-2.982-2.82-50.758 53.07c-27.916 29.19-51.052 53.072-51.412 53.072-.36 0-2.623-2.005-5.03-4.457l-4.374-4.457 4.383-4.793c7.662-8.377 107.125-112.293 107.482-112.293Z" transform="matrix(.11182 0 0 .1116 9.283 -74.59)"/><path style="fill:#144579;fill-opacity:1" d="M986.803 983.772v-54.5h-28v-36h28v-50h-24v-36h109.94l-4.07 11.25c-2.238 6.187-4.879 13.5-5.867 16.25-.989 2.75-2.117 5.787-2.507 6.75-.605 1.492-2.094 1.75-10.103 1.75h-9.393v50h15.5c8.525 0 15.478.337 15.45.75-.026.412-2.844 8.4-6.26 17.75l-6.213 17-9.239.287-9.238.288v60.59l12.5-2.665 12.5-2.665v18.265c0 16.528-.166 18.315-1.75 18.792-2.291.69-75.677 16.608-76.567 16.608-.375 0-.683-24.525-.683-54.5zm225.617 55.25c.403-.688 10.557-15.733 22.564-33.434 12.007-17.7 22.066-32.796 22.353-33.544.287-.748-8.49-14.724-19.506-31.057-11.015-16.333-20.028-29.926-20.028-30.206 0-.28 12.488-.502 27.75-.494l27.75.016 5.902 9.019c3.246 4.96 6.255 9.237 6.687 9.504.432.267 3.739-3.75 7.348-8.927l6.563-9.413v-24.214h-83v-37h139v60.915l-20.5 30.012c-11.275 16.507-20.5 30.467-20.5 31.023 0 .556 10.312 16.32 22.915 35.03l22.914 34.02h-55.734l-9.241-13.5c-5.083-7.425-9.492-13.491-9.798-13.48-.305.011-4.557 6.086-9.447 13.5l-8.891 13.48h-27.918c-22.059 0-27.764-.263-27.184-1.25zm-125.617-21.572v-22.82l-5.25.748c-9.68 1.379-8.75 3.242-8.75-17.539 0-20.767-.824-18.874 8.75-20.089l5.25-.666V716.272h63.672l1.669-6 1.668-6h28.603c22.47 0 28.5.268 28.125 1.25-.263.687-3.035 10.7-6.161 22.25-3.126 11.55-5.915 21.787-6.197 22.75-.473 1.61-2.658 1.75-27.446 1.75h-26.933v41h28.5c15.675 0 28.508.337 28.517.75.01.412-2.783 8.504-6.205 17.981l-6.222 17.231-22.045.27-22.045.268-.272 18.75-.272 18.75h28.522c15.687 0 28.523.337 28.523.75 0 .412-2.812 8.503-6.25 17.98l-6.25 17.23-22 .27-22 .27-.27 22.43c-.149 12.337.077 22.752.5 23.145.423.393 12.244-.792 26.27-2.634 14.024-1.841 26.737-3.369 28.25-3.395l2.75-.046v36.778l-3.25.585c-1.788.322-14.276 1.957-27.75 3.632-13.476 1.675-25.063 3.248-25.75 3.494-.957.343-1.25 6.56-1.25 26.48v26.03h-57zm-958.348 25.603-45.848-48.03 5.927-6.125c3.26-3.37 21.146-22.101 39.747-41.626 18.6-19.525 36.594-38.338 39.986-41.806l6.166-6.305 39.935 41.805c21.965 22.993 42.571 44.597 45.792 48.008l5.856 6.202-43.252 45.298c-23.789 24.914-44.424 46.492-45.856 47.953l-2.605 2.654zm1161.355 118.969c0-.688 2.252-17.218 5-36.734 2.746-19.516 4.993-35.604 4.993-35.75 0-.147-7.425-.266-16.5-.266h-16.5v-2.86c0-1.574.286-4.949.636-7.5l.636-4.64h96.728l-.096 2.25c-.053 1.237-.618 4.5-1.256 7.25l-1.16 5-16.126.274-16.126.274-1.06 7.226c-.583 3.974-2.963 20.613-5.29 36.976l-4.229 29.75h-14.828c-11.2 0-14.827-.306-14.823-1.25zm-285.951-.5c.03-.963.6-6.243 1.265-11.734l1.21-9.983 2.314 3.249 2.314 3.249 27.648-.266 27.649-.265 1.21-7c.667-3.85 1.239-8.013 1.273-9.25l.062-2.25h-61.038l.485-2.25c.267-1.238 1.865-11.925 3.55-23.75 1.687-11.825 3.313-22.738 3.614-24.25l.548-2.75h88.84l.01 2.25c0 1.237-.527 6.862-1.18 12.5l-1.185 10.25h-29.898l.664-5 .663-5h-29.795l-1.675 8.75a3645.48 3645.48 0 0 1-2.217 11.5l-.54 2.75h61.375l-.518 2.25c-.285 1.237-1.766 11.25-3.29 22.25-2.72 19.623-2.833 20.06-5.99 23.25l-3.223 3.25h-42.1c-39.45 0-42.097-.11-42.045-1.75zm-266.983-.885c-1.333-1.694-2.074-4.104-2.075-6.75-.001-2.263 2.3-20.222 5.116-39.908 4.914-34.366 5.048-35.871 3.347-37.75-1.751-1.936-1.586-1.957 14.884-1.957 10.253 0 16.655.378 16.655.983 0 .541-2.248 16.854-4.995 36.25-2.748 19.397-4.998 35.83-5 36.517-.003.955 4.36 1.25 18.495 1.25 14.113 0 18.51-.297 18.54-1.25.02-.688 2.414-16.685 5.318-35.55l5.279-34.298-2.568-1.92c-2.566-1.917-2.548-1.919 15.249-1.95 16.501-.03 17.78.097 17.316 1.718-.275.962-3.103 20.987-6.285 44.5l-5.785 42.75h-91.419zm-235.734-1.115c.327-2.063.897-6.338 1.266-9.5.369-3.163.881-5.75 1.139-5.75.257 0 1.805 1.125 3.439 2.5 2.805 2.36 3.636 2.5 14.875 2.5 11.535 0 11.92-.07 12.387-2.25.968-4.51 8.555-62.619 8.555-65.52 0-1.642-.675-3.546-1.5-4.23-.825-.685-1.5-1.64-1.5-2.123 0-.482 7.425-.877 16.5-.877 16.127 0 16.5.048 16.5 2.112 0 2.84-9.919 76.92-10.594 79.124-.292.954-1.888 3.092-3.546 4.75l-3.014 3.014h-55.101z" transform="matrix(.11182 0 0 .1116 9.283 -74.59)"/><path style="fill:#144579;fill-opacity:1" d="m45.143 1071.97-128.16-134.198 9.185-9.5a6826 6826 0 0 0 22.666-23.612l13.48-14.111 105.924 110.81c58.257 60.945 106.18 110.642 106.494 110.438.314-.205 48.046-50.122 106.071-110.927l105.5-110.555 5.5 5.884c3.025 3.236 13.219 13.925 22.652 23.753l17.152 17.87-128.038 133.975c-70.42 73.686-128.539 134.064-129.151 134.172-.613.11-58.787-60.19-129.275-134z" transform="matrix(.11182 0 0 .1116 9.283 -74.59)"/><path style="fill:#144579;fill-opacity:1;stroke-width:.966381" d="M812.913 50.807V208.61h134.671a28.218 28.218 135 0 0 28.218-28.217V50.807Zm57.327 36.328 24.4.269 24.4.27.263 42.519.261 42.519H870.24v-42.789z" transform="matrix(.11182 0 0 .1116 .011 -.136)"/><path style="fill:#144579;fill-opacity:1;stroke-width:.962" d="M614.75 231.25v140.876h309.41a26.716 26.716 0 0 0 26.714-26.716V231.25Zm55.29 36.273h221v15.94h-221v-7.97zm221 51.797v16.945H781.01c-91.419 0-110.12-.228-110.55-1.345-.284-.74-.383-4.438-.219-8.22l.3-6.874 110.25-.253z" transform="matrix(.11182 0 0 .11202 .199 -.18)"/></svg>