<svg width="140" height="60" fill="none" xmlns="http://www.w3.org/2000/svg"><g clip-path="url(#a)" transform="matrix(.86526 0 0 .85714 -.519 0)"><path d="M162.4 0H.6v70h161.8Z" fill="#c0192c"/><path d="M97.096 56.26h11.547l5.089-12.302.957 12.302h11.004l-2.816-21.867 9.654-20.653H121.24l-5.154 12.236-.892-12.236h-11.195l2.556 20.653z" fill="#fefefe"/><path d="m78.87 13.74 4.795 28.245-3.021 14.275H92.54l3.023-14.275 14.725-28.245H97.54l-6.224 16.575-1.303-16.575Z" fill="#fefefe"/><path d="m33.597 13.74-.776 42.52h15.216l7.472-20.987-1.026 20.987h15.392l15.38-42.52H71.047l-7.026 25.713 2.16-25.713h-13.8L44.92 39.4l2.53-25.66z" fill="#fefefe"/></g><defs><clipPath id="a"><path fill="#fff" transform="translate(.5)" d="M0 0h162v70H0z"/></clipPath></defs></svg>