<svg version="1.1" id="Слой_1" xmlns="http://www.w3.org/2000/svg" x="0" y="0" viewBox="0 0 200 60" style="enable-background:new 0 0 200 60" xml:space="preserve"><style>.st1{fill:#fff;enable-background:new}</style><path d="M89.4 60h-85C2 60 0 58 0 55.6V4.4C0 2 2 0 4.4 0h85c2.4 0 4.4 2 4.4 4.4v51.2c0 2.4-1.9 4.4-4.4 4.4z" style="fill:#304a70;enable-background:new"/><path class="st1" d="M46.6 41.9S46 21.2 46 18.8c0-1.9 1.9-2.1 2.7-2.2h.3v-3.5H38.6l-9.3 23.8-9-23.8H9.8v3.7h3v22.5c0 1.8-1.3 2.3-2.2 2.4h-.8v3.6H20v-3.6h-3l-.3-19.1L26.1 45v.4h4.5l9.2-24.7c.2 6.1.6 17.2.6 18.9 0 2.4-3.1 2.4-3.1 2.4v3.5H50V42h-3.4z"/><path d="M127.8 25s-.4-12.2-.4-13.6c0-1.1 1.1-1.3 1.6-1.3h.2v-2H123l-5.5 14-5.3-14H106v2.2h1.8v13.2c0 1.1-.8 1.3-1.3 1.4h-.5V27h6.1v-2.1h-1.8l-.3-11.2 5.6 13.1v.2h2.7l5.5-14.5c.1 3.6.3 10.1.3 11.1 0 1.4-1.9 1.4-1.9 1.4v2.1h7.6V25h-2zm-5.4 27.1c-.6.6-1.4 1.2-2.5 1.7s-2.6.8-4.4.8c-2.6 0-4.8-.9-6.4-2.7-1.7-1.8-2.5-4.2-2.5-7.1v-.3c0-2.9.8-5.3 2.5-7.1 1.6-1.8 3.8-2.7 6.5-2.7 1.5 0 2.7.2 3.8.7 1.1.5 2 1 2.8 1.8v3.5h-1.9l-.6-2.7c-.4-.4-1-.7-1.6-.9-.6-.2-1.4-.3-2.2-.3-2.1 0-3.8.7-4.9 2.2-1.1 1.4-1.7 3.3-1.7 5.6v.3c0 2.3.6 4.2 1.7 5.7 1.1 1.4 2.6 2.2 4.6 2.2 1.1 0 1.9-.1 2.6-.3.7-.2 1.2-.5 1.6-.7v-4.3l-3.2-.1v-1.9h5.9v6.6zm11.7-17.3c2.1 0 3.8.5 4.9 1.4 1.1.9 1.7 2.3 1.7 4 0 .9-.3 1.8-.8 2.5s-1.3 1.3-2.3 1.7c1.1.3 1.8.9 2.3 1.7.5.8.7 1.8.7 2.9v1.6c0 .6.1 1 .2 1.3.2.3.4.5.8.5l.6.1v1.7h-1.4c-1 0-1.8-.4-2.2-1.1-.4-.7-.7-1.6-.7-2.6V49c0-1.1-.3-1.9-.9-2.6s-1.5-1-2.5-1h-4.3V52l2.2.4v1.7h-7v-1.7l2.2-.4V36.8l-2.2-.4v-1.7h8.7zm-3.8 8.7h3.5c1.5 0 2.6-.3 3.2-.8.7-.6 1-1.4 1-2.5 0-1-.3-1.8-1-2.4-.6-.6-1.6-.9-3-.9h-3.8v6.6zm31.3 1.2c0 2.8-.8 5.2-2.5 7.1-1.6 1.9-3.8 2.8-6.4 2.8-2.5 0-4.6-.9-6.2-2.8-1.6-1.9-2.4-4.2-2.4-7.1v-.3c0-2.8.8-5.2 2.4-7.1 1.6-1.9 3.6-2.8 6.2-2.8s4.7.9 6.4 2.8c1.6 1.9 2.5 4.2 2.5 7.1v.3zm-2.6-.4c0-2.3-.5-4.1-1.6-5.6-1.1-1.4-2.6-2.2-4.5-2.2s-3.3.7-4.3 2.2c-1 1.4-1.6 3.3-1.6 5.6v.3c0 2.3.5 4.1 1.6 5.6 1 1.4 2.5 2.2 4.3 2.2 2 0 3.5-.7 4.6-2.1 1.1-1.4 1.6-3.3 1.6-5.6v-.4zm11.5-9.6v1.7l-2.2.4V48c0 1.5.4 2.6 1.3 3.4.8.8 2 1.1 3.3 1.1 1.5 0 2.6-.4 3.5-1.1.9-.8 1.3-1.9 1.3-3.4V36.8l-2.2-.4v-1.7h7v1.7l-2.2.4V48c0 2.1-.7 3.7-2.1 4.9-1.4 1.1-3.2 1.7-5.4 1.7s-3.9-.6-5.3-1.7c-1.3-1.1-2-2.8-2-4.9V36.8l-2.2-.4v-1.7h7.2zm22.9 0c2.1 0 3.7.5 4.9 1.6 1.2 1.1 1.7 2.5 1.7 4.2 0 1.8-.6 3.2-1.7 4.3-1.2 1.1-2.8 1.6-4.9 1.6h-4.2v5.8l2.2.4v1.7h-7v-1.7l2.2-.4V36.8l-2.2-.4v-1.7h9zm-4.2 9.7h4.2c1.3 0 2.3-.4 3-1.1.7-.7 1-1.6 1-2.7s-.3-2-1-2.7c-.7-.7-1.7-1.1-3-1.1h-4.2v7.6zM132.3 9.7V8.1h4.3v2h-.4l-3.9-.4zm4.3 15.3v2h-4.3v-1.5l3.9-.4h.4zm-2.2-8c0-2.9 0-5.9-.1-8.9h4.6c-.1 2.9-.1 5.9-.1 8.9v.9c0 3.1 0 6 .1 9h-4.6c.1-2.9.1-5.9.1-8.9v-1zm8.8-8.9 1.9 1.6h-8.5V8.1h9.4l.2 4.9H144l-.8-4.9zm-.7 10h-5.9v-1.7h5.9v1.7zm4.2 3.9-.2 4.9h-9.9v-1.6h9l-1.9 1.6.8-4.9h2.2zm-5-5.1.4-2.7h1.6v6.2h-1.6l-.4-2.9v-.6zm7.9-7.2 2-1.6-.7 5.4h-2.3l.1-5.4h16.2l.1 5.4h-2.3l-.7-5.4 2 1.6h-14.4zm7.7 15.4 4.2.4V27H152v-1.5l4.1-.4h1.2zm-2.9-8.1c0-3 0-6-.1-8.9h4.8C159 11 159 14 159 17v1c0 3 0 6 .1 9h-4.8c.1-2.9.1-5.9.1-8.9V17zm9.7 8.5 2.8-.4h.5l2.6.4V27h-5.9v-1.5zm7.8-17.4h2.8l6.2 18.9h-4.7l-4.7-15.5 1-1.5-5.3 16.9h-1.6l6.3-18.8zM169 19.9h7.4l.6 1.7h-8.5l.5-1.7zm4.6 5.7 3.1-.4h1.8l3.5.4v1.5h-8.5v-1.5zm10.2-15.9V8.1h9.1v1.5l-4.1.4h-1l-4-.3zm4.4 15.4v2h-4.4v-1.5l4-.4h.4zm-2.4-17h4.8c-.1 2.9-.1 5.9-.1 8.9v1.5c0 2.5 0 5.5.1 8.5h-4.8c.1-2.9.1-5.9.1-8.3V17c0-2.9 0-5.9-.1-8.9zm12.5 13.3-.3 5.7h-9.8v-1.6h8.9l-2.1 1.6 1.1-5.7h2.2z" style="fill:#231f20;enable-background:new"/><path class="st1" d="M80.7 13.1v10.2h-3.3s-.7-7.2-8.3-7.3c-6-.1-8.6 6.3-8.8 9.5-.1.9 0 3.8 0 3.8h-7.9s0-16.7 14.1-16.7c0 0 8-.3 10.5 2.2v-1.6h3.7z"/><path d="M72.4 29.3h12.4v3.3s-3.1-.3-3.1 2.3.1 8.9.1 8.9h-3.1s-5.2 2.4-10.1 2.4-16.1-2.6-16.1-16.8h7.9s-.3 12.9 8.3 12.9c0 0 5.9 0 7-1.1v-8.5h-3.1l-.2-3.4z" style="fill:#fff"/></svg>