<svg version="1.1" id="Слой_1" x="0" y="0" xml:space="preserve" width="208" height="60" xmlns="http://www.w3.org/2000/svg"><style type="text/css" id="style1">.st0{fill:#222}.st1{fill:#d5d5d5}</style><g id="g21" transform="scale(1 .99981)"><path class="st0" d="M15.8 60h-2.1v-3.5H7.6V60h-2v-8.1h2v3h6.1v-3h2V60Z" id="path1"/><path class="st0" d="m28.5 51.9-3.8 4.9V60H22v-3l-3.9-5h3l2.2 3.1 2.2-3.1c0-.1 3-.1 3-.1z" id="path2"/><path class="st0" d="M37.2 51.9h-6.6V60h6.7c2.2 0 4-1.8 4-4 0-2.3-1.8-4.1-4.1-4.1zm1.5 4c0 1.5-1.2 2.7-2.7 2.7h-3.4v-5.3H36c1.5-.1 2.7 1.1 2.7 2.6z" id="path3"/><path class="st0" d="M51.9 56.9s1.6-.3 1.6-2.7c0-2.4-1.5-2.3-1.5-2.3h-7.6V60h1.5v-3.1h2.6l3 3.1H54l-3.1-3.1Zm-6.1-.9v-3.1h5.1s1.1 0 1.1 1.4-1 1.6-1 1.6h-5.2z" id="path4"/><path class="st0" d="M137.7 56.9s1.6-.3 1.6-2.7c0-2.4-1.6-2.3-1.6-2.3h-7.6V60h1.5v-3.1h2.6l3 3.1h2.6l-3.1-3.1zm-6.1-.9v-3.1h5.1s1.1 0 1.1 1.4-1.1 1.6-1.1 1.6h-5.1z" id="path5"/><path class="st0" d="M124.8 56.9h1s1.6-.3 1.6-2.7c0-2.4-1.6-2.3-1.6-2.3h-7.6V60h1.5v-3.1h2.6m-2.6-.9v-3.1h5.1s1.1 0 1.1 1.4-1.1 1.6-1.1 1.6h-5.1z" id="path6"/><path class="st0" d="M61.6 52h-2L55 60h1.7l1-1.5h6l1 1.5h1.7zm-1 4.9h-2.1l2.1-3.6 2.1 3.6z" id="path7"/><ellipse class="st0" cx="104" cy="23.5" rx="104" ry="23.5" id="ellipse7"/><g id="g9"><g id="g8"><path class="st1" d="M103.9 3.1c60.3 0 100.9 10.6 100.9 20.6 0 10-40.5 20.5-100.8 20.5S3.1 33.6 3.1 23.6c0-10 40.5-20.5 100.8-20.5m0-1C47.7 2.1 2.1 11.7 2.1 23.6S47.7 45.2 104 45.2c56.3 0 101.9-9.7 101.9-21.6 0-11.9-45.7-21.5-102-21.5z" id="path8"/></g></g><g id="g10"><path class="st1" d="M48.9 23.3v.2H9.7v-.2h39.2m1-1H8.6v2.3h41.3z" id="path9"/></g><g id="g11"><path class="st1" d="M197.7 23.5v.2h-39.2v-.2h39.2m1-1h-41.3v2.3h41.3z" id="path10"/></g><path class="st0" id="polygon11" d="M90.7 60v-1.6l-6.6.1v-6.6H82V60h2.9z"/><path class="st0" id="rect11" d="M92.8 52h2.5v8h-2.5z"/><path class="st0" d="M75.9 51.9v6.3c0 .1-.1.3-.3.3H71c-.1 0-.3-.1-.3-.3v-6.3h-2v6.6c0 .8.6 1.4 1.4 1.4h6.3c.8 0 1.4-.6 1.4-1.4v-6.6z" id="path11"/><path class="st0" d="M106.5 57v1.4c0 .2-.2.4-.4.4h-4.8c-.2 0-.4-.2-.4-.4v-4.8c0-.2.2-.4.4-.4h4.8c.2 0 .4.2.4.4V55h2s.2-3-1-3h-7.4c-.7 0-1.2.5-1.2 1.2v5.6c0 .7.6 1.2 1.2 1.2h7.4c1.3 0 1-3 1-3z" id="path12"/><path class="st0" id="polygon12" d="M144.7 53.4h6.6v-1.5h-8.6V60h8.6v-1.5h-6.6v-2.1h4.1V55h-4.1z"/><path class="st0" id="polygon13" d="M182.8 53.4h6.7v-1.5h-8.7V60h8.7v-1.5h-6.7v-2.1h4.1V55h-4.1z"/><g id="g14"><path class="st0" d="M174.6 58.8h-5s-.5-.1-.5-1h-1.5s-.1 2.2 1.5 2.2h6.1s1.5.3 1.5-2.2h-1.6c.2 0 .2 1-.5 1z" id="path13"/><path class="st0" d="M167.6 54.1s-.1 2.2 1.5 2.2h5.5c.7 0 .6 1 .6 1v.6h1.6v-.6c0-2.5-1.5-2.2-1.5-2.2h-5.7s-.5-.1-.5-1 .5-1 .5-1h4.9c.7 0 .6 1 .6 1h1.6c0-2.5-1.5-2.2-1.5-2.2h-6.1c-1.6 0-1.5 2.2-1.5 2.2z" id="path14"/></g><g id="g16"><path class="st0" d="M161.9 58.8h-5s-.5-.1-.5-1h-1.5s-.1 2.2 1.5 2.2h6.1s1.5.3 1.5-2.2h-1.6c.1 0 .2 1-.5 1z" id="path15"/><path class="st0" d="M154.9 54.1s-.1 2.2 1.5 2.2h5.5c.7 0 .6 1 .6 1v.6h1.6v-.6c0-2.5-1.5-2.2-1.5-2.2h-5.7s-.5-.1-.5-1 .5-1 .5-1h4.9c.7 0 .6 1 .6 1h1.6c0-2.5-1.5-2.2-1.5-2.2h-6.1c-1.6 0-1.5 2.2-1.5 2.2z" id="path16"/></g><g id="g18"><path class="st0" d="M199.6 58.8h-5s-.5-.1-.5-1h-1.5s-.1 2.2 1.5 2.2h6.1s1.5.3 1.5-2.2h-1.6c.2 0 .2 1-.5 1z" id="path17"/><path class="st0" d="M192.6 54.1s-.1 2.2 1.5 2.2h5.5c.7 0 .6 1 .6 1v.6h1.6v-.6c0-2.5-1.5-2.2-1.5-2.2h-5.7s-.5-.1-.5-1 .5-1 .5-1h4.9c.7 0 .6 1 .6 1h1.6c0-2.5-1.5-2.2-1.5-2.2h-6.1c-1.6 0-1.5 2.2-1.5 2.2z" id="path18"/></g><path class="st1" d="M63.7 21.4h11.2V30s-.3 3.2-3.7 3.2H57.1s-4.1.1-4.1-4.6V17.8s.2-4 4.1-4h15.1s2.7.1 2.7 2.9v3l-4.6.8-.1-2.2H58.6v10.3h11.7v-3.2h-6.6z" id="path19"/><path class="st1" d="M120.7 21.6h11.2v8.6s-.3 3.2-3.7 3.2h-14.1s-4.2.2-4.2-4.5V18.1s.2-4 4.1-4h15.1s2.7.1 2.7 2.9v3l-4.6.8-.1-2.2h-11.7v10.3h11.7v-3.2h-6.6z" id="path20"/><path class="st1" d="M148.7 17.3h-4l-9.2 15.4 5.1-.1 1.8-3.1h8.6l1.8 3.1 5.1.1zm-2 8.6h-2.6l2.6-4.8 2.6 4.8z" id="path21"/><path class="st1" id="polygon21" d="M96.8 32.6V29H85.7V17.3h-4.2v15.3h4.2z"/><path class="st1" id="rect21" d="M99.9 17.3h4.4v15.3h-4.4z"/></g></svg>