<svg width="32" height="32" fill="none" xmlns="http://www.w3.org/2000/svg"><g clip-path="url(#a)"><path d="M16.86 19.35H5.02v-5.421h11.84c.69 0 1.172.14 1.413.383.241.244.39.695.39 1.355v1.947c0 .695-.149 1.147-.39 1.39-.241.244-.722.348-1.414.348v-.002Zm.811-10.532H0V32h5.02v-7.542h9.253L18.663 32h5.623l-4.84-7.577c1.784-.306 2.585-.94 3.246-1.982.66-1.043.992-2.71.992-4.936v-1.738c0-1.32-.12-2.363-.331-3.162a5.497 5.497 0 0 0-1.082-2.12A4.812 4.812 0 0 0 20.407 9.2c-.722-.243-1.625-.383-2.736-.383v.002Z" fill="#fff"/><path d="M27.5 9a4.5 4.5 0 1 0 0-9 4.5 4.5 0 0 0 0 9Z" fill="#ED143B"/></g><defs><clipPath id="a"><path fill="#fff" d="M0 0h32v32H0z"/></clipPath></defs></svg>