<svg width="23" height="23" fill="none" xmlns="http://www.w3.org/2000/svg"><circle cx="11.5" cy="11.5" r="11.5" fill="#2F89CE"/><path d="m5.376 11.714 2.644.986 1.031 3.316c.045.225.314.27.493.135l1.479-1.21c.134-.135.358-.135.537 0l2.644 1.927c.18.134.448.045.493-.18l1.972-9.41c.045-.224-.18-.448-.403-.358l-10.89 4.212c-.268.09-.268.493 0 .582Zm3.54.493 5.199-3.181c.09-.045.179.09.09.134l-4.259 3.99c-.134.134-.269.313-.269.537l-.134 1.076c0 .134-.224.179-.269 0l-.538-1.972c-.134-.224-.044-.493.18-.583Z" fill="#fff"/></svg>