<svg width="32" height="33" fill="none" xmlns="http://www.w3.org/2000/svg"><path d="M32 16.5c0 8.837-7.163 16-16 16s-16-7.163-16-16S7.163.5 16 .5s16 7.163 16 16Z" fill="#7294C7"/><path d="M23.845 20.591c0-.066-.067-.066-.067-.132-.265-.532-.863-1.196-1.66-1.927-.399-.332-.598-.597-.73-.73-.2-.266-.2-.465-.134-.73.067-.2.333-.532.797-1.13.266-.332.399-.531.598-.73.996-1.329 1.461-2.192 1.329-2.59l-.067-.067c-.066-.067-.133-.133-.266-.133-.132-.066-.331-.066-.53 0h-2.991l-.066.066c-.067.067-.067.067-.067.133-.265.73-.597 1.329-.93 1.993-.199.332-.398.664-.597.93-.2.265-.332.465-.465.597-.133.133-.266.2-.332.333-.066.066-.2.132-.2.066-.066 0-.132 0-.132-.066l-.2-.2c-.066-.066-.066-.199-.132-.332v-3.321c0-.066-.067-.199-.067-.265l-.199-.2c-.066-.066-.2-.066-.266-.133a5.95 5.95 0 0 0-1.195-.132c-1.063 0-1.793.066-2.06.199-.132.066-.265.133-.331.266-.133.132-.133.199-.067.199.332.066.598.2.731.398l.066.133c.067.067.067.2.133.399.067.199.067.398.067.664v1.063c0 .332-.067.53-.067.73 0 .2-.066.332-.133.399-.066.133-.066.199-.133.199 0 0 0 .066-.066.066s-.133.067-.265.067a.503.503 0 0 1-.266-.133.8.8 0 0 1-.332-.332 2.317 2.317 0 0 1-.399-.598c-.133-.266-.332-.531-.465-.93l-.133-.265a9.42 9.42 0 0 1-.332-.731c-.133-.332-.265-.598-.398-.93a.916.916 0 0 0-.2-.266h-.066s-.066-.066-.133-.066c-.066 0-.133-.066-.199-.066h-2.39c-.266 0-.399.066-.465.132l-.066.067v.133c0 .066 0 .132.066.265.332.797.73 1.594 1.13 2.391.398.731.796 1.395 1.062 1.86.332.465.598.93.93 1.328.332.399.531.665.598.797l.265.266.2.2c.132.132.332.331.597.53.266.2.598.4.93.599.332.199.73.332 1.13.465.464.132.863.199 1.261.132h.996c.2 0 .332-.066.465-.199l.067-.066c0-.067.066-.067.066-.133v-.266c0-.266 0-.465.067-.664.066-.2.066-.332.132-.465a.917.917 0 0 1 .2-.266l.133-.133h.066c.133-.066.332 0 .465.133.2.133.398.332.531.532.133.199.332.398.598.664.266.265.465.465.598.531l.199.133c.133.066.266.133.465.2.2.066.332.066.465.066l2.258-.067c.2 0 .399-.066.531-.133.133-.066.2-.132.2-.265v-.266c-.133-.133-.133-.2-.133-.266Z" fill="#fff"/></svg>