<svg width="23" height="23" fill="none" xmlns="http://www.w3.org/2000/svg"><circle cx="11.5" cy="11.5" r="11.5" fill="#48C95F"/><path d="M16.058 6.936a5.996 5.996 0 0 0-4.25-1.761c-3.323 0-6.016 2.683-6.016 5.995 0 1.049.295 2.097.8 2.977L5.75 17.25l3.198-.839a6.151 6.151 0 0 0 2.86.713c3.324 0 6.017-2.683 6.017-5.995-.042-1.552-.631-3.061-1.767-4.193Zm-1.346 6.373c-.127.335-.716.67-1.01.712a2.36 2.36 0 0 1-.926-.042c-.21-.083-.505-.167-.841-.335-1.515-.629-2.483-2.138-2.567-2.264-.084-.084-.63-.797-.63-1.551 0-.755.378-1.09.504-1.258.126-.168.295-.168.42-.168h.295c.084 0 .21-.042.337.252.126.293.42 1.048.463 1.09a.266.266 0 0 1 0 .251c-.042.084-.084.168-.169.252-.084.084-.168.21-.21.252-.084.083-.168.167-.084.293.084.168.379.629.841 1.048.59.503 1.052.671 1.22.755.169.084.253.042.337-.042.084-.084.379-.42.463-.587.084-.168.21-.126.337-.084.126.042.883.42 1.01.503.167.084.252.126.294.168.042.126.042.42-.084.755Z" fill="#fff"/></svg>