<svg width="252" height="161" fill="none" xmlns="http://www.w3.org/2000/svg"><path d="M6.642 161s-.584-9.429 2.848-12.498c0 0-10.442-11.11-9.42-30.26 1.023-19.15 8.617-27.043 8.617-27.043s12.268-15.057 31.107-19.442c0 0 4.036-56.843 51.554-29.383 0 0 16.741-42.374 56.397-42.374 39.655 0 52.254 26.875 52.254 26.875s11.543 16.23 9.937 44.443c0 0 44.397 12.133 39.577 47.216 0 0 .439 7.821-4.016 17.177 0 0 11.83 11.694 3.578 25.289H6.642Z" fill="#fff"/><path d="m79.328 111.058 4.786-28.292h9.46l-4.843 28.292a17.872 17.872 0 0 1-2.238 6.712c-1.17 2.076-2.728 3.747-4.673 5.012-1.925 1.265-4.182 1.86-6.768 1.784-2.625-.056-4.72-.679-6.287-1.869-1.549-1.189-2.662-2.756-3.342-4.701-.661-1.945-.963-4.106-.906-6.485l9.544.028a47.862 47.862 0 0 1-.199 2.152c-.094.85-.037 1.605.17 2.266.227.642.812.982 1.756 1.02.963.037 1.671-.293 2.124-.992.472-.717.802-1.538.991-2.464.19-.944.33-1.765.425-2.463Zm32.568-19.173L99.011 124H88.589l19.484-41.234h6.571l-2.748 9.119Zm.34 32.115-1.812-33.078.226-8.156h6.259L122.12 124h-9.884Zm2.917-15.378-1.359 7.675H96.405l1.36-7.675h17.388Zm28.859 4.191c.132-.736.141-1.397.028-1.982a3.522 3.522 0 0 0-.68-1.529 5.328 5.328 0 0 0-1.274-1.246 12.33 12.33 0 0 0-1.699-1.048 30.823 30.823 0 0 1-3.88-2.209 17.656 17.656 0 0 1-3.2-2.804 10.968 10.968 0 0 1-2.068-3.512c-.453-1.302-.632-2.794-.538-4.474.113-1.888.595-3.569 1.445-5.041a11.747 11.747 0 0 1 3.341-3.739 14.895 14.895 0 0 1 4.617-2.293 16.164 16.164 0 0 1 5.182-.737c2.53.038 4.654.623 6.372 1.756s3.012 2.662 3.88 4.588c.869 1.926 1.274 4.078 1.218 6.457l-9.374.028c.019-.774 0-1.567-.057-2.379-.056-.811-.292-1.491-.708-2.039-.396-.566-1.104-.859-2.124-.878-.812-.019-1.529.18-2.152.595a4.912 4.912 0 0 0-1.529 1.643 6.498 6.498 0 0 0-.765 2.124c-.113.642-.066 1.227.141 1.756.208.528.52 1.01.935 1.444a8.21 8.21 0 0 0 1.388 1.161c.528.34 1.029.642 1.501.906a24.112 24.112 0 0 1 4.021 2.294c1.19.85 2.2 1.813 3.03 2.889a10.35 10.35 0 0 1 1.87 3.625c.415 1.34.566 2.87.453 4.588-.132 1.926-.586 3.634-1.36 5.126a11.783 11.783 0 0 1-3.058 3.738c-1.265 1.001-2.71 1.756-4.333 2.266-1.624.491-3.37.727-5.239.708-2.058-.057-3.899-.425-5.523-1.105-1.605-.698-2.955-1.671-4.05-2.917-1.095-1.246-1.916-2.709-2.464-4.389-.547-1.7-.802-3.559-.764-5.58l9.515.029c-.056.831-.075 1.633-.056 2.407.019.774.141 1.463.368 2.067a2.903 2.903 0 0 0 1.161 1.445c.566.34 1.369.51 2.407.51.85 0 1.548-.189 2.096-.567a3.977 3.977 0 0 0 1.274-1.557 7.337 7.337 0 0 0 .652-2.125Zm36.901-30.047L173.748 124h-9.487l7.165-41.234h9.487Zm9.686 0-1.331 7.674h-28.632l1.359-7.674h28.604Z" fill="#144579"/></svg>