<svg width="373" height="317" fill="none" xmlns="http://www.w3.org/2000/svg"><path d="M372.134 185.737c0 72.247-58.672 130.814-131.048 130.814-72.375 0-131.047-58.567-131.047-130.814 0-72.247 58.672-130.815 131.047-130.815 72.376 0 131.048 58.568 131.048 130.815Z" fill="#144579"/><path fill-rule="evenodd" clip-rule="evenodd" d="m26.816 30.154 138.803 130.42 3.428-3.636L30.244 26.518c3.377-5.286 2.628-12.387-2.114-16.842-5.364-5.04-13.805-4.785-18.854.57-5.05 5.354-4.794 13.78.57 18.82 4.742 4.455 11.888 4.773 16.97 1.088Z" fill="#144579"/></svg>