<svg width="262" height="371" fill="none" xmlns="http://www.w3.org/2000/svg"><path d="M262 239.621c0 72.234-58.651 130.792-131 130.792-72.35 0-131-58.558-131-130.792 0-72.235 58.65-130.793 131-130.793 72.349 0 131 58.558 131 130.793Z" fill="#144579"/><path fill-rule="evenodd" clip-rule="evenodd" d="m128.753 27.102 1.873 97.45 4.999-.096-1.873-97.45c6.145-1.286 10.705-6.785 10.58-13.283-.142-7.35-6.225-13.195-13.587-13.054-7.363.14-13.216 6.214-13.075 13.565.125 6.498 4.893 11.819 11.083 12.868Z" fill="#144579"/></svg>