<svg width="351" height="417" fill="none" xmlns="http://www.w3.org/2000/svg"><path d="M262.011 285.643c0 72.259-58.653 130.836-131.005 130.836C58.653 416.479 0 357.902 0 285.643c0-72.259 58.653-130.836 131.006-130.836 72.352 0 131.005 58.577 131.005 130.836Z" fill="#144579"/><path fill-rule="evenodd" clip-rule="evenodd" d="m322.187 27.9-118.14 149.325 3.924 3.096 118.14-149.326c5.566 2.903 12.586 1.544 16.622-3.557 4.565-5.77 3.582-14.145-2.196-18.704-5.778-4.56-14.163-3.578-18.729 2.192-4.035 5.101-3.736 12.237.379 16.974Z" fill="#144579"/></svg>