<svg width="659" height="296" fill="none" xmlns="http://www.w3.org/2000/svg"><path d="M658.127 164.068c0 72.38-58.662 131.056-131.026 131.056-72.363 0-131.025-58.676-131.025-131.056 0-72.38 58.662-131.056 131.025-131.056 72.364 0 131.026 58.676 131.026 131.056Z" fill="#144579"/><path fill-rule="evenodd" clip-rule="evenodd" d="m28.268 21.246 420.784 92 1.068-4.887-420.784-92c.175-6.279-4.125-11.996-10.485-13.386C11.655 1.4 4.547 5.959 2.974 13.156c-1.572 7.197 2.986 14.306 10.18 15.88 6.361 1.39 12.654-2.01 15.114-7.79Z" fill="#144579"/></svg>